<svg xmlns="http://www.w3.org/2000/svg" viewBox="0 0 179 44" width="179" height="44">
  <path d="M19.60 27.52L10 27.52L10 26.27L11.49 26.10L11.49 11.44L10 11.25L10 10L15.38 10L15.38 11.25L13.41 11.44L13.41 26.22L18.90 26.22L19.10 23.44L20.34 23.44L20.34 26.78Q20.34 27.52 19.60 27.52L19.60 27.52ZM28.02 27.86L28.02 27.86Q26.25 27.86 24.90 26.96Q23.56 26.06 22.82 24.44Q22.07 22.82 22.07 20.66L22.07 20.66Q22.07 17.15 23.60 15.30Q25.12 13.46 28.02 13.46L28.02 13.46Q29.82 13.46 31.17 14.36Q32.51 15.26 33.27 16.88Q34.02 18.50 34.02 20.66L34.02 20.66Q34.02 24.16 32.49 26.01Q30.95 27.86 28.02 27.86ZM28.02 26.39L28.02 26.39Q30.02 26.39 31.07 24.93Q32.13 23.46 32.13 20.66L32.13 20.66Q32.13 18.93 31.61 17.64Q31.10 16.36 30.18 15.64Q29.27 14.92 28.02 14.92L28.02 14.92Q26.06 14.92 25 16.40Q23.94 17.87 23.94 20.66L23.94 20.66Q23.94 22.36 24.46 23.66Q24.98 24.95 25.90 25.67Q26.82 26.39 28.02 26.39ZM43.05 27.52L37.07 27.52L37.07 26.27L38.75 26.10L38.75 15.23L37.07 15.04L37.07 13.79L39.62 13.79Q40.36 13.79 40.36 14.54L40.36 14.54L40.36 17.51Q41.06 15.69 42.42 14.61Q43.79 13.53 45.47 13.46L45.47 13.46L45.47 15.11Q44.08 15.16 42.99 15.92Q41.90 16.67 41.27 17.93Q40.65 19.19 40.65 20.80L40.65 20.80L40.65 26.10L43.05 26.27L43.05 27.52ZM53.08 27.86L53.08 27.86Q51.26 27.86 49.89 26.98Q48.52 26.10 47.76 24.53Q47.01 22.96 47.01 20.87L47.01 20.87Q47.01 17.37 48.56 15.41Q50.10 13.46 52.86 13.46L52.86 13.46Q54.54 13.46 55.77 14.24Q56.99 15.02 57.66 16.46Q58.34 17.90 58.34 19.89L58.34 19.89L58.34 21.06L48.88 21.06Q48.90 23.54 50.04 24.96Q51.18 26.39 53.15 26.39L53.15 26.39Q54.93 26.39 57.06 25.31L57.06 25.31L57.66 26.70Q56.49 27.26 55.31 27.56Q54.14 27.86 53.08 27.86ZM48.93 19.72L48.93 19.72L56.44 19.72Q56.44 17.51 55.47 16.22Q54.50 14.92 52.86 14.92L52.86 14.92Q51.16 14.92 50.14 16.16Q49.12 17.39 48.93 19.72ZM81.64 27.86L81.64 27.86Q79.34 27.86 79.34 25.14L79.34 25.14L79.34 17.75Q79.34 16.22 78.78 15.57Q78.23 14.92 76.94 14.92L76.94 14.92Q74.99 14.92 73.05 16.50L73.05 16.50Q73.10 16.91 73.12 17.20Q73.14 17.49 73.14 17.75L73.14 17.75L73.14 26.10L74.80 26.27L74.80 27.52L71.99 27.52Q71.25 27.52 71.25 26.82L71.25 26.82L71.25 17.75Q71.25 16.22 70.70 15.57Q70.14 14.92 68.85 14.92L68.85 14.92Q66.83 14.92 64.86 16.70L64.86 16.70L64.86 26.10L66.54 26.27L66.54 27.52L61.29 27.52L61.29 26.27L62.97 26.10L62.97 15.23L61.29 15.04L61.29 13.79L63.83 13.79Q64.58 13.79 64.58 14.51L64.58 14.51L64.58 15.45Q65.63 14.51 66.87 13.98Q68.10 13.46 69.21 13.46L69.21 13.46Q71.85 13.46 72.71 15.30L72.71 15.30Q73.79 14.42 74.99 13.94Q76.19 13.46 77.30 13.46L77.30 13.46Q79.34 13.46 80.28 14.49Q81.23 15.52 81.23 17.75L81.23 17.75L81.23 24.93Q81.23 26.25 82.26 26.25L82.26 26.25Q82.91 26.25 83.27 26.10L83.27 26.10L83.49 27.54Q82.58 27.86 81.64 27.86ZM98.06 27.52L93.16 27.52L93.16 26.27L94.65 26.10L94.65 11.44L93.16 11.25L93.16 10L98.06 10L98.06 11.25L96.57 11.44L96.57 26.10L98.06 26.27L98.06 27.52ZM104.63 32.97L102.74 33.11L102.74 15.23L101.06 15.04L101.06 13.79L103.60 13.79Q104.34 13.79 104.34 14.51L104.34 14.51L104.34 16.02Q106.24 13.46 108.83 13.46L108.83 13.46Q110.30 13.46 111.39 14.36Q112.48 15.26 113.09 16.88Q113.70 18.50 113.70 20.66L113.70 20.66Q113.70 24.11 112.29 25.98Q110.87 27.86 108.26 27.86L108.26 27.86Q106.41 27.86 104.63 26.99L104.63 26.99L104.63 32.97ZM107.94 26.39L107.94 26.39Q109.86 26.39 110.84 24.94Q111.81 23.49 111.81 20.66L111.81 20.66Q111.81 17.87 110.86 16.38Q109.91 14.90 108.16 14.90L108.16 14.90Q106.26 14.90 104.63 17.10L104.63 17.10L104.63 25.58Q106.17 26.39 107.94 26.39ZM121.53 27.86L121.53 27.86Q119.56 27.86 118.26 26.84Q116.97 25.82 116.54 23.94L116.54 23.94L118.19 23.56Q119.03 26.44 121.55 26.44L121.55 26.44Q122.97 26.44 123.74 25.84Q124.50 25.24 124.50 24.14L124.50 24.14Q124.50 23.32 123.96 22.79Q123.42 22.26 122.57 21.89Q121.72 21.52 120.76 21.14Q119.80 20.75 118.95 20.26Q118.10 19.77 117.56 19Q117.02 18.23 117.02 17.06L117.02 17.06Q117.02 15.40 118.28 14.43Q119.54 13.46 121.72 13.46L121.72 13.46Q122.80 13.46 123.84 13.70Q124.89 13.94 126.02 14.42L126.02 14.42L125.42 15.81Q123.52 14.92 121.70 14.92L121.70 14.92Q120.38 14.92 119.64 15.48Q118.91 16.05 118.91 17.03L118.91 17.03Q118.91 17.87 119.45 18.41Q119.99 18.95 120.84 19.35Q121.70 19.74 122.64 20.12Q123.59 20.49 124.44 20.98Q125.30 21.47 125.84 22.22Q126.38 22.96 126.38 24.14L126.38 24.14Q126.38 25.89 125.09 26.87Q123.81 27.86 121.53 27.86ZM134.27 27.86L134.27 27.86Q132.23 27.86 131.28 26.82Q130.34 25.79 130.34 23.56L130.34 23.56L130.34 15.23L128.66 15.04L128.66 13.79L131.42 13.79Q132.23 13.79 132.23 14.54L132.23 14.54L132.23 23.56Q132.23 25.10 132.78 25.76Q133.34 26.42 134.63 26.42L134.63 26.42Q136.89 26.42 139.19 24.54L139.19 24.54L139.19 15.23L137.75 15.04L137.75 13.79L140.34 13.79Q141.06 13.79 141.06 14.54L141.06 14.54L141.06 24.93Q141.06 26.25 142.12 26.25L142.12 26.25Q142.38 26.25 142.66 26.21Q142.94 26.18 143.10 26.10L143.10 26.10L143.34 27.54Q142.38 27.86 141.50 27.86L141.50 27.86Q139.55 27.86 139.24 26.01L139.24 26.01Q138.04 26.90 136.76 27.38Q135.47 27.86 134.27 27.86ZM166.29 27.86L166.29 27.86Q163.98 27.86 163.98 25.14L163.98 25.14L163.98 17.75Q163.98 16.22 163.43 15.57Q162.88 14.92 161.58 14.92L161.58 14.92Q159.64 14.92 157.70 16.50L157.70 16.50Q157.74 16.91 157.77 17.20Q157.79 17.49 157.79 17.75L157.79 17.75L157.79 26.10L159.45 26.27L159.45 27.52L156.64 27.52Q155.90 27.52 155.90 26.82L155.90 26.82L155.90 17.75Q155.90 16.22 155.34 15.57Q154.79 14.92 153.50 14.92L153.50 14.92Q151.48 14.92 149.51 16.70L149.51 16.70L149.51 26.10L151.19 26.27L151.19 27.52L145.94 27.52L145.94 26.27L147.62 26.10L147.62 15.23L145.94 15.04L145.94 13.79L148.48 13.79Q149.22 13.79 149.22 14.51L149.22 14.51L149.22 15.45Q150.28 14.51 151.52 13.98Q152.75 13.46 153.86 13.46L153.86 13.46Q156.50 13.46 157.36 15.30L157.36 15.30Q158.44 14.42 159.64 13.94Q160.84 13.46 161.94 13.46L161.94 13.46Q163.98 13.46 164.93 14.49Q165.88 15.52 165.88 17.75L165.88 17.75L165.88 24.93Q165.88 26.25 166.91 26.25L166.91 26.25Q167.56 26.25 167.92 26.10L167.92 26.10L168.14 27.54Q167.22 27.86 166.29 27.86Z" fill="currentColor"/>
</svg>