<svg xmlns="http://www.w3.org/2000/svg" viewBox="0 0 149 44" width="149" height="44">
  <path d="M20.46 26.58L10.26 26.58L10 24.83L11.46 24.59L11.46 11.94L10.02 11.80L10.02 10L15.35 10L15.59 11.78L13.91 12.04L13.91 24.50L18.54 24.50L19.41 22.07L20.94 22.07L20.46 26.58ZM27.09 26.68L27.09 26.68Q25.60 26.68 24.45 25.91Q23.30 25.14 22.65 23.80Q22.00 22.46 22.00 20.75L22.00 20.75Q22.00 18.98 22.67 17.67Q23.34 16.36 24.48 15.64Q25.62 14.92 27.09 14.92L27.09 14.92Q28.58 14.92 29.73 15.65Q30.88 16.38 31.53 17.70Q32.18 19.02 32.18 20.75L32.18 20.75Q32.18 22.48 31.53 23.82Q30.88 25.17 29.73 25.92Q28.58 26.68 27.09 26.68ZM27.09 24.83L27.09 24.83Q28.00 24.83 28.62 24.34Q29.25 23.85 29.56 22.96Q29.87 22.07 29.87 20.87L29.87 20.87Q29.87 19.70 29.56 18.76Q29.25 17.82 28.62 17.30Q28.00 16.77 27.09 16.77L27.09 16.77Q26.39 16.77 25.88 17.09Q25.36 17.42 25.01 18.00Q24.66 18.59 24.50 19.35Q24.33 20.10 24.33 20.97L24.33 20.97Q24.33 22.14 24.65 23.02Q24.98 23.90 25.59 24.36Q26.20 24.83 27.09 24.83ZM40.53 26.58L34.02 26.58L33.74 25.29L35.15 24.90L35.15 16.79L33.90 16.84L33.66 15.45L36.54 14.92L37.26 16.05Q37.77 15.50 38.43 15.21Q39.09 14.92 39.71 14.92L39.71 14.92Q40.77 14.92 41.54 15.42Q42.30 15.93 42.66 16.77L42.66 16.77L40.29 17.97L39.52 16.82Q39.16 16.82 38.66 17.07Q38.15 17.32 37.78 17.90Q37.41 18.47 37.41 19.43L37.41 19.43L37.41 24.62L40.53 25.29L40.53 26.58ZM48.81 26.68L48.81 26.68Q47.25 26.68 46.05 25.98Q44.85 25.29 44.16 23.99Q43.48 22.70 43.48 20.92L43.48 20.92Q43.48 19.02 44.19 17.69Q44.90 16.36 46.07 15.65Q47.25 14.94 48.69 14.94L48.69 14.94Q49.67 14.94 50.55 15.30Q51.42 15.66 51.98 16.37Q52.53 17.08 52.53 18.16L52.53 18.16Q52.53 19.29 52.01 20.03Q51.50 20.78 50.63 21.21Q49.77 21.64 48.71 21.82Q47.66 22 46.58 22L46.58 22L45.86 21.98Q46.02 23.20 46.79 24.03Q47.56 24.86 49.12 24.86L49.12 24.86Q50.06 24.86 50.76 24.52Q51.47 24.18 51.95 23.78L51.95 23.78L52.46 25.48Q52.12 25.79 51.57 26.07Q51.02 26.34 50.31 26.51Q49.60 26.68 48.81 26.68ZM45.83 20.25L45.83 20.25L46.43 20.27Q46.98 20.27 47.64 20.20Q48.30 20.13 48.89 19.92Q49.48 19.72 49.85 19.30Q50.22 18.88 50.22 18.21L50.22 18.21Q50.22 17.46 49.74 17.13Q49.26 16.79 48.69 16.79L48.69 16.79Q47.87 16.79 47.25 17.26Q46.62 17.73 46.25 18.52Q45.88 19.31 45.83 20.25ZM59.22 26.58L54.45 26.58L54.23 25.31L55.58 24.95L55.58 16.79L54.33 16.82L54.09 15.42L57.09 14.90L57.78 15.83Q58.36 15.45 59.14 15.20Q59.92 14.94 60.66 14.94L60.66 14.94Q61.58 14.94 62.32 15.22Q63.06 15.50 63.54 16.10L63.54 16.10Q64.19 15.59 64.82 15.35Q65.44 15.11 66.00 15.03Q66.57 14.94 67.00 14.94L67.00 14.94Q68.08 14.94 68.88 15.30Q69.69 15.66 70.14 16.40Q70.60 17.13 70.60 18.26L70.60 18.26L70.60 24.98L71.94 25.29L71.92 26.58L67.02 26.58L66.98 25.29L68.37 24.98L68.37 18.69Q68.37 17.73 67.91 17.27Q67.46 16.82 66.62 16.82L66.62 16.82Q65.99 16.82 65.33 17.09Q64.67 17.37 64.22 17.85L64.22 17.85L64.22 25L65.58 25.29L65.56 26.58L60.74 26.58L60.69 25.29L61.98 24.98L61.98 18.69Q61.98 17.73 61.53 17.27Q61.07 16.82 60.23 16.82L60.23 16.82Q59.51 16.82 58.84 17.13Q58.17 17.44 57.83 17.78L57.83 17.78L57.83 24.98L59.25 25.29L59.22 26.58ZM84.86 26.58L79.58 26.58L79.36 24.83L80.85 24.57L80.85 11.97L79.36 11.82L79.36 10L84.64 10L84.86 11.80L83.30 12.04L83.30 24.62L84.88 24.81L84.86 26.58ZM92.80 33.14L86.68 33.14L86.37 31.84L87.69 31.50L87.69 16.77L86.34 16.91L86.10 15.42L89.18 14.92L89.78 15.62Q90.26 15.33 90.88 15.14Q91.50 14.94 92.27 14.94L92.27 14.94Q93.78 14.94 94.83 15.69Q95.87 16.43 96.42 17.72Q96.98 19 96.98 20.66L96.98 20.66Q96.98 22.12 96.59 23.25Q96.21 24.38 95.51 25.13Q94.82 25.89 93.87 26.28Q92.92 26.68 91.79 26.68L91.79 26.68Q91.29 26.68 90.82 26.60Q90.35 26.51 89.94 26.34L89.94 26.34L89.94 31.24L92.80 31.82L92.80 33.14ZM91.77 24.86L91.77 24.86Q92.73 24.86 93.38 24.33Q94.02 23.80 94.34 22.89Q94.65 21.98 94.65 20.78L94.65 20.78Q94.65 19.65 94.35 18.74Q94.05 17.82 93.45 17.30Q92.85 16.77 91.91 16.77L91.91 16.77Q91.34 16.77 90.78 17.00Q90.23 17.22 89.94 17.58L89.94 17.58L89.94 24.33Q90.28 24.57 90.78 24.71Q91.29 24.86 91.77 24.86ZM102.62 26.66L102.62 26.66Q101.51 26.66 100.65 26.27Q99.78 25.89 99.23 25.30Q98.68 24.71 98.42 24.16L98.42 24.16L100.91 23.20L101.51 24.59Q101.63 24.64 101.96 24.74Q102.28 24.83 102.76 24.83L102.76 24.83Q103.07 24.83 103.44 24.69Q103.82 24.54 104.08 24.24Q104.34 23.94 104.34 23.44L104.34 23.44Q104.34 22.91 104.02 22.58Q103.70 22.24 103.14 22.01Q102.59 21.78 101.94 21.52L101.94 21.52Q100.46 20.99 99.70 20.18Q98.94 19.36 98.94 18.23L98.94 18.23Q98.94 17.25 99.46 16.50Q99.98 15.76 100.86 15.34Q101.75 14.92 102.78 14.92L102.78 14.92Q103.91 14.92 104.72 15.29Q105.52 15.66 106.04 16.22Q106.55 16.77 106.79 17.27L106.79 17.27L104.30 18.23L103.72 17.01Q103.65 16.96 103.41 16.86Q103.17 16.77 102.74 16.77L102.74 16.77Q102.38 16.77 102.04 16.90Q101.70 17.03 101.48 17.30Q101.25 17.56 101.25 17.99L101.25 17.99Q101.25 18.45 101.60 18.76Q101.94 19.07 102.59 19.35Q103.24 19.62 104.08 19.98L104.08 19.98Q105.28 20.46 105.96 21.24Q106.65 22.02 106.65 23.22L106.65 23.22Q106.65 24.33 106.06 25.11Q105.47 25.89 104.55 26.27Q103.62 26.66 102.62 26.66ZM113.08 26.68L113.08 26.68Q112.07 26.68 111.24 26.31Q110.42 25.94 109.92 25.12Q109.43 24.30 109.43 22.96L109.43 22.96L109.43 16.84L108.18 16.84L107.94 15.45L110.94 14.90L111.69 15.69L111.69 22.65Q111.69 23.32 111.87 23.75Q112.05 24.18 112.35 24.41Q112.65 24.64 113.00 24.72Q113.34 24.81 113.68 24.81L113.68 24.81Q114.33 24.81 114.96 24.45Q115.60 24.09 115.84 23.61L115.84 23.61L115.84 16.79L114.64 16.84L114.42 15.45L117.35 14.90L118.07 15.69L118.07 24.42Q118.07 24.74 118.22 24.84Q118.36 24.95 118.53 24.95L118.53 24.95Q118.67 24.95 118.78 24.93Q118.89 24.90 118.91 24.90L118.91 24.90L119.25 26.01Q119.10 26.18 118.67 26.43Q118.24 26.68 117.62 26.68L117.62 26.68Q117.04 26.68 116.63 26.42Q116.22 26.15 116.01 25.60L116.01 25.60Q115.46 26.13 114.66 26.40Q113.87 26.68 113.08 26.68ZM125.78 26.58L121 26.58L120.78 25.31L122.13 24.95L122.13 16.79L120.88 16.82L120.64 15.42L123.64 14.90L124.34 15.83Q124.91 15.45 125.69 15.20Q126.47 14.94 127.22 14.94L127.22 14.94Q128.13 14.94 128.87 15.22Q129.62 15.50 130.10 16.10L130.10 16.10Q130.74 15.59 131.37 15.35Q131.99 15.11 132.56 15.03Q133.12 14.94 133.55 14.94L133.55 14.94Q134.63 14.94 135.44 15.30Q136.24 15.66 136.70 16.40Q137.15 17.13 137.15 18.26L137.15 18.26L137.15 24.98L138.50 25.29L138.47 26.58L133.58 26.58L133.53 25.29L134.92 24.98L134.92 18.69Q134.92 17.73 134.46 17.27Q134.01 16.82 133.17 16.82L133.17 16.82Q132.54 16.82 131.88 17.09Q131.22 17.37 130.77 17.85L130.77 17.85L130.77 25L132.14 25.29L132.11 26.58L127.29 26.58L127.24 25.29L128.54 24.98L128.54 18.69Q128.54 17.73 128.08 17.27Q127.62 16.82 126.78 16.82L126.78 16.82Q126.06 16.82 125.39 17.13Q124.72 17.44 124.38 17.78L124.38 17.78L124.38 24.98L125.80 25.29L125.78 26.58Z" fill="currentColor"/>
</svg>