<svg xmlns="http://www.w3.org/2000/svg" viewBox="0 0 80 80" width="80" height="80">
  <path d="M55.66 40.60L55.66 40.60Q55.66 41.74 50.38 43.24L50.38 43.24Q50.86 49.48 50.86 53.86L50.86 53.86Q50.86 61.42 48.94 61.42L48.94 61.42Q47.92 61.42 47.32 60.16Q46.72 58.90 46.36 55.78L46.36 55.78Q45.94 50.02 45.46 44.50L45.46 44.50Q42.76 45.22 40.54 45.79Q38.32 46.36 33.82 47.62L33.82 47.62Q28.54 61.42 27.58 61.42Q26.62 61.42 25.51 60.25Q24.40 59.08 24.40 57.76L24.40 57.76Q24.40 57.16 27.82 49.24L27.82 49.24L27.40 49.24Q26.20 49.24 25.27 48.46Q24.34 47.68 24.34 46.51Q24.34 45.34 30.28 43.42L30.28 43.42Q31.24 41.26 31.84 39.52L31.84 39.52Q33.22 36.10 35.68 30.16Q38.14 24.22 38.80 22.57Q39.46 20.92 41.11 19.75Q42.76 18.58 44.32 18.58L44.32 18.58Q46.18 18.58 47.65 24.52Q49.12 30.46 50.02 39.22L50.02 39.22Q51.70 39.04 52.96 39.04L52.96 39.04Q55.66 39.04 55.66 40.60ZM36.04 41.86L36.04 41.86Q40.30 40.72 45.04 39.94L45.04 39.94Q43.96 29.68 42.94 24.52L42.94 24.52Q40.24 30.70 36.04 41.86Z" fill="currentColor"/>
</svg>