<svg xmlns="http://www.w3.org/2000/svg" viewBox="0 0 80 80" width="80" height="80">
  <path d="M32.95 56.47L32.95 56.47Q27.79 56.47 23.77 54.34Q19.75 52.21 16.90 48.16Q14.05 44.11 12.55 38.29Q11.05 32.47 11.05 25.03L11.05 25.03Q11.05 19.99 11.95 15.52Q12.85 11.05 14.56 7.21Q16.27 3.37 18.67 0.31Q21.07-2.75 24.07-4.91Q27.07-7.07 30.58-8.21Q34.09-9.35 37.99-9.35L37.99-9.35Q42.85-9.35 46.87-7.67Q50.89-5.99 53.92-2.75Q56.95 0.49 58.69 5.29L58.69 5.29Q58.99 6.07 58.96 6.67Q58.93 7.27 58.15 7.69L58.15 7.69Q57.25 8.17 56.77 7.87Q56.29 7.57 55.93 6.85L55.93 6.85Q54.19 2.47 51.52-0.41Q48.85-3.29 45.43-4.73Q42.01-6.17 37.99-6.17L37.99-6.17Q34.57-6.17 31.54-5.12Q28.51-4.07 25.87-2.12Q23.23-0.17 21.16 2.59Q19.09 5.35 17.62 8.83Q16.15 12.31 15.37 16.39Q14.59 20.47 14.59 25.03L14.59 25.03Q14.59 31.69 15.82 36.94Q17.05 42.19 19.45 45.82Q21.85 49.45 25.33 51.37Q28.81 53.29 33.19 53.29L33.19 53.29Q36.43 53.29 39.37 51.88Q42.31 50.47 44.86 47.77Q47.41 45.07 49.45 41.14Q51.49 37.21 52.99 32.05Q54.49 26.89 55.27 20.65L55.27 20.65Q55.27 19.99 55.66 19.72Q56.05 19.45 56.89 19.45L56.89 19.45Q57.73 19.45 58.12 19.72Q58.51 19.99 58.51 20.59L58.51 20.59L58.45 44.95Q58.45 47.17 58.78 48.76Q59.11 50.35 59.77 51.37Q60.43 52.39 61.45 52.87Q62.47 53.35 63.85 53.35L63.85 53.35Q65.17 53.35 66.22 52.93Q67.27 52.51 68.26 51.52Q69.25 50.53 70.27 48.91L70.27 48.91Q70.69 48.31 71.17 48.22Q71.65 48.13 72.25 48.55L72.25 48.55Q72.91 48.97 73 49.45Q73.09 49.93 72.73 50.53L72.73 50.53Q71.83 51.97 70.84 53.11Q69.85 54.25 68.74 55Q67.63 55.75 66.37 56.11Q65.11 56.47 63.61 56.47L63.61 56.47Q60.79 56.47 58.93 55.24Q57.07 54.01 56.17 51.46Q55.27 48.91 55.27 44.95L55.27 44.95L55.27 32.77Q53.83 38.29 51.61 42.70Q49.39 47.11 46.51 50.17Q43.63 53.23 40.21 54.85Q36.79 56.47 32.95 56.47ZM5.71 89.35L5.71 88.75L74.29 88.75L74.29 89.35L5.71 89.35ZM5.71 55.45L5.71 54.25L74.29 54.25L74.29 55.45L5.71 55.45ZM5.71 25.45L5.71 25.15L74.29 25.15L74.29 25.45L5.71 25.45ZM5.71-8.45L5.71-9.05L74.29-9.05L74.29-8.45L5.71-8.45Z" fill="currentColor"/>
</svg>